<svg xmlns="http://www.w3.org/2000/svg" viewBox="0 0 1001.7 954.48"><g id="Camada_2" data-name="Camada 2"><g id="Camada_1-2" data-name="Camada 1"><path d="M246.82,179.35l23.71,164a3,3,0,0,0,5,1.81L399.05,234.76a3,3,0,0,1,4.55,3.82L316.37,379.42A3,3,0,0,0,319,384l165.58-5.12a3,3,0,0,1,1,5.84L328.28,436.55a3,3,0,0,0-.92,5.2L457.5,544.27a3,3,0,0,1-3,5.14L300.68,488a3,3,0,0,0-4.05,3.4l33.8,162.18a3,3,0,0,1-5.58,2l-78.36-146a3,3,0,0,0-5.28,0l-78.36,146a3,3,0,0,1-5.58-2l33.8-162.18a3,3,0,0,0-4-3.4L33.17,549.41a3,3,0,0,1-3-5.14L160.34,441.75a3,3,0,0,0-.92-5.2L2.07,384.72a3,3,0,0,1,1-5.84L168.68,384a3,3,0,0,0,2.65-4.58L84.1,238.58a3,3,0,0,1,4.55-3.82L212.2,345.12a3,3,0,0,0,5-1.81l23.71-164A3,3,0,0,1,246.82,179.35Z"/><path d="M986.72,110.92c-26.31-66.65-92.14-92.23-107-98C806.6-15.5,738.37,8.63,696.67,31.06,720.72,44,743.51,63.71,758.72,84.92c34.27,47.78,17.09,84.94,55,118,18.34,16,43.59,25.8,65,27.92,6.83-45-19-107.13-8-110.92,12.95-4.45,67.43,74.25,46,101-6.83,8.52-21.24,11.59-38,9.92-2,13.1-6.74,24.74-16,33.08C838.27,286,793,275.29,747,260.38a58.23,58.23,0,0,1-2.29,23.54c-13.54,42.08-73.43,45.64-72,60,2,20.47,128.52,60.47,224,0C969.3,298,1020.38,196.19,986.72,110.92Z"/><path d="M602.72,127.92c-6.25-26.68,35.13-57.3,55-72a312.23,312.23,0,0,1,38.95-24.86c-27.91-15-57.53-20.84-78.95-9.14-41.08,22.42-45.94,105.93-15,158,23.5,39.55,62.88,52.93,119,72,8.38,2.84,16.85,5.72,25.29,8.46-2.43-25.45-18.62-48.26-23.29-54.46C681.13,149.31,610.4,160.72,602.72,127.92Z"/><path d="M566.42,927.84c-21-2-35.35-9-41.74-20.4-11.23-20,2.24-53.73,37-92.53,36.06-40.29,90.72-82,153.92-117.5,82-46,167.68-74.64,223.57-74.64,28.36,0,47.42,7.26,55.14,21,6.89,12.27,4.65,29.64-6.44,50.45-9.32-10.81-26.53-16.49-50.24-16.49-50.67,0-124.9,24.69-198.58,66.06-54.43,30.56-102,66.64-134,101.61C575,878.2,561.53,907.17,566.42,927.84Z"/><path d="M939.14,626.27c18.83,0,43.16,3.33,52.08,19.23,7,12.42,2.41,28.92-4.31,42.83-10.48-9.26-27.26-14.09-49.32-14.09-51.24,0-126.11,24.86-200.29,66.51C682.55,771.48,634.66,807.81,602.43,843c-15.94,17.44-27.38,33.86-34,48.81-5.24,11.84-7.33,22.55-6.28,32-13.59-1.89-28-6.7-34.44-18.1-10.45-18.61,2.86-50.86,36.52-88.47,35.81-40,90.15-81.49,153-116.79,41.18-23.12,83.76-42.19,123.12-55.13,37.9-12.47,72-19.06,98.74-19.06h0m0-7c-54.88,0-139.13,26.72-225.28,75.09C582.5,768.1,496.44,864.27,521.62,909.15c7.8,13.89,25.33,21.24,49.74,22.57-17.09-40.31,57.27-121.94,169.37-184.87,75.28-42.27,148.89-65.62,196.86-65.61,24.9,0,42.9,6.3,50.62,19.51,13.61-23.39,17.44-43.84,9.11-58.68-8.67-15.45-29.38-22.8-58.19-22.8Z"/><path d="M937.59,688.24c14.67,0,33.25,2.32,42.27,12.81C950.65,748.17,883,805.13,801.67,850.76c-41.18,23.12-83.76,42.18-123.11,55.13-37.91,12.47-72,19.06-98.73,19.06-1.11,0-2.22,0-3.32,0-3.67-16.9,9.27-42.91,36.25-72.42C644,818.33,690.67,783,744.16,753c35.93-20.18,73.08-36.82,107.43-48.12,33-10.86,62.77-16.6,86-16.6h0m0-7c-48,0-121.58,23.34-196.86,65.61-112.1,62.93-186.46,144.56-169.37,184.87q4.11.22,8.47.23c54.88,0,139.13-26.73,225.27-75.09C893,807.51,960.65,748.1,988.21,700.75c-7.72-13.22-25.71-19.51-50.62-19.51Z"/><path d="M937.59,688.24c16.06,0,36.83,2.78,44.58,16l.2.36c8.89,15.93-2.71,43.71-31.83,76.25C919.31,815.78,871.9,852,817,882.76c-35.94,20.18-73.09,36.82-107.43,48.12-33,10.86-62.77,16.6-86,16.6-16.23,0-37.17-2.83-44.76-16.36a19.09,19.09,0,0,1-1-2.13c-7-16.62,5.7-44.5,35-76.5C644,818.33,690.67,783,744.16,753c35.93-20.18,73.08-36.82,107.43-48.12,33-10.86,62.77-16.6,86-16.6h0m0-7c-48,0-121.58,23.34-196.86,65.61-112.1,62.93-186.46,144.56-169.37,184.87a27.54,27.54,0,0,0,1.38,2.84c7.58,13.49,25.69,19.92,50.86,19.92,48,0,121.58-23.35,196.86-65.61,114.79-64.45,190-148.49,168-187.71l-.24-.41c-7.72-13.22-25.71-19.51-50.62-19.51Z"/></g></g></svg>