<svg xmlns="http://www.w3.org/2000/svg" viewBox="0 0 1062.65 236"><defs><style>.cls-1{fill:#fff;}</style></defs><g id="Camada_2" data-name="Camada 2"><g id="Camada_1-2" data-name="Camada 1"><path class="cls-1" d="M233.14,0H0V137.25c0,5.36.56,18.3,1.46,22.45a98.34,98.34,0,0,0,15.23,35.79,89.65,89.65,0,0,0,16.24,17.94C56,233,82.47,239.9,112,233.75c19.78-4.12,36.43-13.89,49.14-29.85a86.94,86.94,0,0,0,16.89-33.62s.35-1.43.77-3.81h0A134.08,134.08,0,0,0,181,140.28a135.07,135.07,0,0,0-1.48-17.63c-.12-.85-.25-1.71-.4-2.58-.11-.67-.24-1.33-.37-2-.07-.39-.14-.77-.22-1.15h0a93.4,93.4,0,0,0-11.66-29,77.7,77.7,0,0,0-16.65-18c-16.81-13.34-38.75-21.17-60-18.89a48.55,48.55,0,0,0-12.49,2.81v81.48l43,40.74V65.42a64.38,64.38,0,0,1,27.6,15.9,71.74,71.74,0,0,1,16.94,24.36,80.07,80.07,0,0,1,3.76,13h0a115.84,115.84,0,0,1-.35,47.59h0a86,86,0,0,1-7.82,21.3,75.17,75.17,0,0,1-22.92,24.62c-16.37,11.37-34.73,15.5-54.39,13.24-21.89-2.5-40.13-12.35-54.07-29.58a89.78,89.78,0,0,1-15.68-28.74,86,86,0,0,1-4-26.46q-.06-22.4-.09-44.79,0-43,0-86.06H114.49c61.7,0,111.71,50.63,111.71,113.09V236h9.72V0Z"/><path class="cls-1" d="M398.33,65.17c0,46.56-35.2,52.8-53.12,52.8H295v-5.12c5.76,0,8-3.84,8-14.08V31.57c0-10.23-2.24-14.08-8-14.08V12.38h50.24C363.13,12.38,398.33,18.77,398.33,65.17Zm-22.08,0c0-32.32-12.16-44.48-35.2-44.48h-16v89h16C364.09,109.65,376.25,97.49,376.25,65.17Z"/><path class="cls-1" d="M457.69,34.77c30.24,0,43.84,20,43.84,41.6S487.93,118,457.69,118s-43.84-20-43.84-41.6S427.45,34.77,457.69,34.77Zm4.48,74.56c15-1.92,19.68-15.36,17.12-35.68-2.56-20.16-10.24-32.16-26.08-30.24-15,1.92-19.68,15.36-17.12,35.68C438.65,99.25,446.33,111.25,462.17,109.33Z"/><path class="cls-1" d="M608.73,112.85V118H570.65v-5.12c5.76,0,8-3.84,8-14.08V61.49c0-10.72-3.52-16.8-12.32-16.8-16.32,0-23.68,22.56-23.68,44.48v9.6c0,10.24,2.24,14.08,8,14.08V118H512.57v-5.12c5.76,0,8-3.84,8-14.08V57.17c0-10.24-2.24-14.08-8-14.08V38h10.56c12.48,0,19.52.8,19.52,13.28V61h1.6c3.36-15,12.64-24.64,28.8-24.64,16.32,0,27.68,9.76,27.68,30.56V98.77C600.73,109,603,112.85,608.73,112.85Z"/><path class="cls-1" d="M707.93,103.89V110c-2.72,4.16-8.8,6.4-14.88,6.4-5.92,0-14.24-1.6-15.2-10.72v-1.12h-1.6c-4.8,7.52-14.88,13.44-29.12,13.44-16.8,0-25.76-6.56-25.76-20,0-23.2,33.92-28.64,56.32-31.2-.64-16.48-3.68-23.68-16.48-23.68-13.12,0-18.24,7.36-13.44,19.68l-21.12,4.16c-4.8-17.6,8.16-32.16,36.8-32.16,26.08,0,36.48,10.72,36.48,39.36v22.4C699.93,105.49,702.81,106.93,707.93,103.89ZM677.85,83.73v-8.8C659,77,643.45,84.05,643.45,97c0,8.48,3.52,12.64,11.36,12.64,13.76,0,23-13.44,23-24Z"/><path class="cls-1" d="M774.81,104.37c-3.2,9.12-10.72,13.6-23.84,13.6-13,0-27.2-4.64-27.2-25.92V44.69H712.25V36.37c12.32-1.6,19.52-5.12,19.52-25.59h14.08V36.37H770c0,5.12,0,8.32-7.68,8.32H745.85V89.17c0,12.64.16,20.48,6.56,20.48,4,0,5.76-2.08,6.08-8.48Z"/><path class="cls-1" d="M861.21,86.29c1.6,17.12-11,31.68-35,31.68-31,0-43.52-17.12-43.52-39.52,0-27.2,18.24-43.68,45.12-43.68,19.84,0,33.92,8.48,33.92,23.52,0,24.48-35.52,27.2-57,21.76.16,16.16,6.56,29.6,20.8,29.6,9.92,0,15.68-4.48,13.6-19.2ZM805.05,71.41c22.72,5.44,34.56-.32,34.56-13.6,0-9.44-4.64-14.72-13.92-14.72C812.09,43.09,806.33,54,805.05,71.41Z"/><path class="cls-1" d="M902.81,98.77c0,10.24,2.24,14.08,8,14.08V118H872.73v-5.12c5.76,0,8-3.84,8-14.08V22c0-10.24-2.24-14.08-8-14.08V2.78h10.56c12.48,0,19.52,1,19.52,14.07Z"/><path class="cls-1" d="M954.49,98.77c0,10.24,2.24,14.08,8,14.08V118H924.41v-5.12c5.76,0,8-3.84,8-14.08V22c0-10.24-2.24-14.08-8-14.08V2.78H935c12.48,0,19.52,1,19.52,14.07Z"/><path class="cls-1" d="M1062.65,103.89V110c-2.72,4.16-8.8,6.4-14.88,6.4-5.92,0-14.24-1.6-15.2-10.72v-1.12H1031c-4.8,7.52-14.88,13.44-29.12,13.44-16.8,0-25.76-6.56-25.76-20,0-23.2,33.92-28.64,56.32-31.2-.64-16.48-3.68-23.68-16.48-23.68-13.12,0-18.24,7.36-13.44,19.68l-21.12,4.16c-4.8-17.6,8.16-32.16,36.8-32.16,26.08,0,36.48,10.72,36.48,39.36v22.4C1054.65,105.49,1057.53,106.93,1062.65,103.89Zm-30.08-20.16v-8.8c-18.88,2.08-34.4,9.12-34.4,22.08,0,8.48,3.52,12.64,11.36,12.64,13.76,0,23-13.44,23-24Z"/><path class="cls-1" d="M318.38,157.77c12.33,0,24.56,6.55,19.55,22.73l-3.85-1.93c4.52-11.26-4.14-17.91-15.79-17.91-9.63,0-17.15,4-17.15,11.94,0,9.34,11.08,12.23,17.92,14.83,13.48,5.2,22.24,7.8,22.24,19.74,0,11.46-9.63,16.08-21.28,16.08-13.87,0-29.08-5.58-24.08-26.48l3.86,1.93c-5,16.08,8.08,21.67,20.41,21.67,10.21,0,17.24-4,17.24-13.2,0-10.49-8.48-11.75-18.39-15.89-11.18-4.62-21.77-7.51-21.77-18.58C297.29,162.68,306.44,157.77,318.38,157.77Z"/><path class="cls-1" d="M375,217a6.8,6.8,0,0,1-7,6.25c-4.91,0-9.34-1.25-9.34-14.05V177h-6.26v-2.89c7.22,0,7.22-1,7.22-15.41h2.89v15.41h9.72c0,1.93,0,2.89-2.89,2.89h-6.83v30.43c0,8.77.86,12.91,5.39,12.91,3.08,0,4-2.22,4.24-4.34Z"/><path class="cls-1" d="M427.1,182.33v31.78c0,5.39.58,7.22,4.82,7.22v1h-5.78c-1.54-.09-2.89-.67-2.89-4.14v-9.92h-.48c-2.41,8.28-7.61,15-18.68,15-11.37,0-15.12-7.79-15.12-20.31V182.33c0-5.39-.58-7.22-4.82-7.22v-1h13.49v1c-4.24,0-4.82,1.83-4.82,7.22V203.9c0,9.73,2.5,16.47,11.56,16.47,15.89,0,18.87-15.7,18.87-28.89v-9.15c0-5.39-.58-7.22-4.81-7.22v-1h13.48v1C427.68,175.11,427.1,176.94,427.1,182.33Z"/><path class="cls-1" d="M464.56,173.18a20.43,20.43,0,0,1,18.88,12.13h.48V161.14c0-5.39-.58-7.22-4.81-7.22v-1h5.77c1.54.09,2.89.77,2.89,4.81v56.34c0,5.39.58,7.22,4.82,7.22v1h-5.78c-1.54-.09-2.89-.67-2.89-3.85v-7.32h-.48a20.42,20.42,0,0,1-18.88,12.13c-12.42,0-21.57-9.24-21.57-25S452.14,173.18,464.56,173.18Zm0,47.19c12.91,0,18.88-9.73,18.88-22.15s-6-22.15-18.88-22.15c-11,0-17.71,8.76-17.71,22.15S453.59,220.37,464.56,220.37Z"/><path class="cls-1" d="M512.33,214.11c0,5.39.58,7.22,4.82,7.22v1H503.66v-1c4.24,0,4.82-1.83,4.82-7.22V182.33c0-5.39-.58-7.22-4.82-7.22v-1h5.78c1.54.1,2.89.68,2.89,4.14Zm-5.78-53.55a2.89,2.89,0,1,1,2.89,3A2.95,2.95,0,0,1,506.55,160.56Z"/><path class="cls-1" d="M549.4,173.18c14.93,0,22.15,12.33,22.15,25s-7.22,25-22.15,25-22.14-12.32-22.14-25S534.48,173.18,549.4,173.18ZM551,220.27c12-.77,17.62-10.69,16.75-23.3s-7.8-21.67-19.84-20.8-17.62,10.68-16.75,23.3S538.91,221.14,551,220.27Z"/></g></g></svg>