<svg xmlns="http://www.w3.org/2000/svg" viewBox="0 0 1005.81 694"><defs><style>.cls-1{fill:#000;}</style></defs><g id="Camada_2" data-name="Camada 2"><g id="Camada_1-2" data-name="Camada 1"><path class="cls-1" d="M661.55,0H340.43V189c0,7.39.78,25.22,2,30.93a135.82,135.82,0,0,0,21,49.3A123.26,123.26,0,0,0,385.79,294c31.75,26.89,68.23,36.46,109,28,27.25-5.67,50.17-19.13,67.68-41.12q17.18-21.57,23.27-46.3s.47-2,1-5.24h.07a184.59,184.59,0,0,0,.87-60.37c-.16-1.17-.34-2.36-.55-3.54-.15-.93-.33-1.85-.51-2.76l-.3-1.57h0a128.47,128.47,0,0,0-16.07-39.89A106.9,106.9,0,0,0,547.3,96.36c-23.16-18.37-53.37-29.16-82.62-26a65.88,65.88,0,0,0-17.21,3.87V186.44l59.26,56.11V90.11a88.64,88.64,0,0,1,38,21.9,98.54,98.54,0,0,1,23.33,33.56,108.82,108.82,0,0,1,5.17,17.94h0a159.54,159.54,0,0,1-.49,65.54h0A118.49,118.49,0,0,1,562,258.39c-7.49,13.19-18.06,24.52-31.58,33.92-22.54,15.66-47.84,21.34-74.91,18.24-30.15-3.46-55.27-17-74.47-40.75a123.23,123.23,0,0,1-21.6-39.59,118.06,118.06,0,0,1-5.5-36.45q-.07-30.84-.12-61.68-.07-59.27,0-118.54H498.13c85,0,153.87,69.74,153.87,155.76V325.06h13.38V0Z"/><path class="cls-1" d="M135.42,470c0,61-46.12,69.18-69.6,69.18H0v-6.71c7.55,0,10.48-5,10.48-18.45v-88c0-13.42-2.93-18.45-10.48-18.45v-6.71H65.82C89.3,400.78,135.42,409.17,135.42,470Zm-28.93,0c0-42.35-15.93-58.28-46.12-58.28h-21V528.24h21C90.56,528.24,106.49,512.3,106.49,470Z"/><path class="cls-1" d="M213.19,430.13c39.62,0,57.44,26.2,57.44,54.5s-17.82,54.51-57.44,54.51-57.43-26.21-57.43-54.51S173.57,430.13,213.19,430.13Zm5.87,97.69c19.71-2.52,25.79-20.13,22.43-46.75-3.35-26.41-13.41-42.14-34.17-39.62-19.7,2.52-25.78,20.12-22.43,46.75C188.25,514.61,198.31,530.33,219.06,527.82Z"/><path class="cls-1" d="M411.08,532.43v6.71H361.19v-6.71c7.55,0,10.49-5,10.49-18.45V465.14c0-14.05-4.62-22-16.15-22-21.38,0-31,29.56-31,58.27V514c0,13.42,2.93,18.45,10.48,18.45v6.71H285.1v-6.71c7.55,0,10.48-5,10.48-18.45v-54.5c0-13.42-2.93-18.45-10.48-18.45v-6.71h13.83c16.35,0,25.58,1.05,25.58,17.4v12.79h2.09c4.41-19.71,16.57-32.28,37.74-32.28,21.38,0,36.26,12.78,36.26,40V514C400.6,527.4,403.54,532.43,411.08,532.43Z"/><path class="cls-1" d="M541.06,520.69v8c-3.57,5.45-11.53,8.38-19.5,8.38-7.76,0-18.66-2.1-19.91-14v-1.47h-2.1c-6.29,9.85-19.5,17.61-38.15,17.61-22,0-33.75-8.6-33.75-26.21,0-30.39,44.44-37.52,73.79-40.87-.84-21.6-4.83-31-21.6-31-17.19,0-23.89,9.64-17.6,25.79l-27.68,5.45c-6.28-23.06,10.7-42.14,48.22-42.14,34.17,0,47.79,14.05,47.79,51.57v29.35C530.57,522.79,534.35,524.67,541.06,520.69Zm-39.41-26.41V482.75c-24.74,2.72-45.08,11.95-45.08,28.93,0,11.11,4.62,16.56,14.89,16.56,18,0,30.19-17.61,30.19-31.45Z"/><path class="cls-1" d="M628.68,521.32c-4.19,11.95-14,17.82-31.23,17.82-17,0-35.64-6.08-35.64-34V443.13H546.72v-10.9c16.14-2.1,25.57-6.71,25.57-33.54h18.45v33.54h31.65c0,6.7,0,10.9-10.06,10.9H590.74V501.4c0,16.56.21,26.84,8.59,26.84,5.24,0,7.55-2.73,8-11.11Z"/><path class="cls-1" d="M741.88,497.63c2.1,22.43-14.46,41.51-45.91,41.51-40.67,0-57-22.43-57-51.78,0-35.64,23.9-57.23,59.12-57.23,26,0,44.44,11.11,44.44,30.82,0,32.07-46.54,35.63-74.63,28.5.21,21.18,8.6,38.79,27.25,38.79,13,0,20.55-5.87,17.82-25.16ZM668.3,478.14c29.77,7.12,45.28-.42,45.28-17.82,0-12.37-6.08-19.29-18.24-19.29C677.53,441,670,455.29,668.3,478.14Z"/><path class="cls-1" d="M796.39,514c0,13.42,2.93,18.45,10.48,18.45v6.71H757v-6.71c7.54,0,10.48-5,10.48-18.45V413.36c0-13.42-2.94-18.45-10.48-18.45v-6.7h13.83c16.35,0,25.58,1.25,25.58,18.44Z"/><path class="cls-1" d="M864.1,514c0,13.42,2.93,18.45,10.48,18.45v6.71H824.69v-6.71c7.54,0,10.48-5,10.48-18.45V413.36c0-13.42-2.94-18.45-10.48-18.45v-6.7h13.83c16.35,0,25.58,1.25,25.58,18.44Z"/><path class="cls-1" d="M1005.81,520.69v8c-3.56,5.45-11.53,8.38-19.5,8.38-7.75,0-18.65-2.1-19.91-14v-1.47h-2.1c-6.29,9.85-19.49,17.61-38.15,17.61-22,0-33.75-8.6-33.75-26.21,0-30.39,44.44-37.52,73.79-40.87-.84-21.6-4.82-31-21.59-31-17.19,0-23.9,9.64-17.61,25.79l-27.67,5.45C893,449.21,910,430.13,947.53,430.13c34.17,0,47.8,14.05,47.8,51.57v29.35C995.33,522.79,999.1,524.67,1005.81,520.69ZM966.4,494.28V482.75c-24.74,2.72-45.07,11.95-45.07,28.93,0,11.11,4.61,16.56,14.88,16.56,18,0,30.19-17.61,30.19-31.45Z"/><path class="cls-1" d="M352.39,608.21c16.15,0,32.17,8.57,25.61,29.77l-5-2.52c5.93-14.76-5.43-23.47-20.7-23.47-12.61,0-22.45,5.17-22.45,15.65,0,12.23,14.51,16,23.46,19.43,17.67,6.81,29.15,10.21,29.15,25.86,0,15-12.62,21.07-27.89,21.07-18.16,0-38.1-7.32-31.54-34.7l5.05,2.53c-6.56,21.07,10.6,28.38,26.75,28.38,13.37,0,22.58-5.17,22.58-17.28,0-13.75-11.1-15.39-24.1-20.82-14.63-6.05-28.51-9.84-28.51-24.35C324.76,614.64,336.75,608.21,352.39,608.21Z"/><path class="cls-1" d="M426.58,685.8a8.92,8.92,0,0,1-9.21,8.2c-6.44,0-12.24-1.64-12.24-18.42V633.44h-8.2v-3.79c9.46,0,9.46-1.26,9.46-20.18h3.79v20.18h12.74c0,2.53,0,3.79-3.78,3.79h-9v39.87c0,11.48,1.13,16.9,7.06,16.9,4,0,5.3-2.9,5.55-5.67Z"/><path class="cls-1" d="M494.84,640.38V682c0,7.07.75,9.47,6.31,9.47v1.26h-7.57c-2-.13-3.79-.88-3.79-5.43v-13h-.63C486,685.17,479.19,694,464.68,694c-14.89,0-19.81-10.22-19.81-26.62v-27c0-7.07-.75-9.46-6.3-9.46v-1.27h17.66v1.27c-5.55,0-6.31,2.39-6.31,9.46v28.26c0,12.74,3.28,21.57,15.14,21.57,20.82,0,24.73-20.56,24.73-37.85v-12c0-7.07-.76-9.46-6.31-9.46v-1.27h17.67v1.27C495.59,630.92,494.84,633.31,494.84,640.38Z"/><path class="cls-1" d="M543.92,628.39a26.77,26.77,0,0,1,24.73,15.9h.63V612.62c0-7.06-.76-9.46-6.31-9.46V601.9h7.57c2,.12,3.79,1,3.79,6.31V682c0,7.07.75,9.47,6.3,9.47v1.26h-7.57c-2-.13-3.78-.88-3.78-5V678.1h-.63A26.77,26.77,0,0,1,543.92,694c-16.28,0-28.26-12.11-28.26-32.8S527.64,628.39,543.92,628.39Zm0,61.82c16.91,0,24.73-12.74,24.73-29s-7.82-29-24.73-29c-14.38,0-23.22,11.48-23.22,29S529.54,690.21,543.92,690.21Z"/><path class="cls-1" d="M606.5,682c0,7.07.76,9.47,6.31,9.47v1.26H595.14v-1.26c5.56,0,6.31-2.4,6.31-9.47V640.38c0-7.07-.75-9.46-6.31-9.46v-1.27h7.57c2,.13,3.79.89,3.79,5.43Zm-7.57-70.15a3.79,3.79,0,1,1,3.78,3.92A3.86,3.86,0,0,1,598.93,611.86Z"/><path class="cls-1" d="M655.07,628.39c19.56,0,29,16.15,29,32.81s-9.46,32.8-29,32.8-29-16.15-29-32.8S635.52,628.39,655.07,628.39Zm2,61.7c15.77-1,23.09-14,22-30.53s-10.22-28.39-26-27.26-23.09,14-22,30.54S641.32,691.22,657.09,690.09Z"/></g></g></svg>